<?xml version="1.0" encoding="UTF-8" standalone="no" ?>
<!DOCTYPE svg PUBLIC "-//W3C//DTD SVG 1.1//EN" "http://www.w3.org/Graphics/SVG/1.1/DTD/svg11.dtd">
<svg xmlns="http://www.w3.org/2000/svg" xmlns:xlink="http://www.w3.org/1999/xlink" version="1.1" width="1280" height="1024" viewBox="0 0 1280 1024" xml:space="preserve">
<desc>Created with Fabric.js 5.3.0</desc>
<defs>
</defs>
<g transform="matrix(1 0 0 1 640 512)" id="background-logo"  >
<rect style="stroke: none; stroke-width: 0; stroke-dasharray: none; stroke-linecap: butt; stroke-dashoffset: 0; stroke-linejoin: miter; stroke-miterlimit: 4; fill: rgb(255,255,255); fill-opacity: 0; fill-rule: nonzero; opacity: 1;"  paint-order="stroke"  x="-640" y="-512" rx="0" ry="0" width="1280" height="1024" />
</g>
<g transform="matrix(1.9211538461538462 0 0 1.9211538461538462 640 403.58067049218835)" id="logo-logo"  >
<g style=""  paint-order="stroke"   >
		<g transform="matrix(0.7412012636812497 0 0 0.7412012636812498 2.892314868331937 -11.308443387241738)"  >
<path style="stroke: none; stroke-width: 1; stroke-dasharray: none; stroke-linecap: butt; stroke-dashoffset: 0; stroke-linejoin: miter; stroke-miterlimit: 4; fill: rgb(28,160,99); fill-rule: evenodd; opacity: 1;"  paint-order="stroke"  transform=" translate(-453.7357750228724, -381.57689674189874)" d="M 378.397 376.544 C 376.132 379.905 374.76 383.919 374.605 388.251 C 374.51800000000003 390.709 374.428 393.167 374.33700000000005 395.62399999999997 C 335.53700000000003 391.73999999999995 301.69500000000005 372.64 284.87600000000003 336.06199999999995 C 283.855 333.84099999999995 287.04100000000005 330.193 291.99300000000005 327.917 C 296.9440000000001 325.64 301.78600000000006 325.594 302.80800000000005 327.815 C 317.31 359.357 345.141 373.238 378.397 376.544 L 378.397 376.544 z M 292.196 329.667 C 295.595 327.965 299.064 327.53099999999995 299.944 328.69699999999995 C 300.285 329.1499999999999 300.18600000000004 329.77799999999996 299.738 330.47599999999994 C 298.659 330.56399999999996 297.706 331.30799999999994 297.314 332.76199999999994 C 297.057 332.93699999999995 296.786 333.10999999999996 296.50100000000003 333.27899999999994 C 294.48100000000005 332.80299999999994 294.04100000000005 333.87899999999996 293.61400000000003 334.66099999999994 C 293.439 334.72599999999994 293.266 334.78799999999995 293.093 334.84599999999995 C 290.867 334.518 290.225 335.35799999999995 289.606 335.5129999999999 C 288.673 335.5129999999999 287.967 335.30099999999993 287.634 334.8589999999999 C 286.754 333.693 288.797 331.368 292.196 329.667 L 292.196 329.667 z M 516.313 373.95 C 554.749 376.87399999999997 591.799 388.82599999999996 622.786 424.465 C 620.2139999999999 432.604 614.8739999999999 435.82399999999996 608.3699999999999 436.97499999999997 C 580.4769999999999 404.893 545.6429999999999 394.81899999999996 509.2099999999999 392.74999999999994 L 516.313 373.95 L 516.313 373.95 z" stroke-linecap="round" />
</g>
		<g transform="matrix(0.7412012636812497 0 0 0.7412012636812498 -12.567685658682251 2.842171e-14)"  >
<path style="stroke: none; stroke-width: 1; stroke-dasharray: none; stroke-linecap: butt; stroke-dashoffset: 0; stroke-linejoin: miter; stroke-miterlimit: 4; fill: rgb(225,250,238); fill-rule: nonzero; opacity: 1;"  paint-order="stroke"  transform=" translate(-432.8777418751272, -396.8338100006232)" d="M 469.924 262.001 C 467.981 261.637 466.697 259.765 467.063 257.81899999999996 C 467.426 255.87399999999997 469.299 254.59199999999996 471.245 254.95699999999997 C 489.659 258.40099999999995 506.843 265.311 522.091 274.98199999999997 C 537.677 284.868 551.255 297.643 562.073 312.556 C 563.235 314.15999999999997 562.8779999999999 316.40299999999996 561.274 317.566 C 559.669 318.72799999999995 557.426 318.36999999999995 556.264 316.76599999999996 C 545.9830000000001 302.59299999999996 533.071 290.44699999999995 518.244 281.04299999999995 C 503.736 271.843 487.406 265.271 469.924 262.001 L 469.924 262.001 z M 515.068 448.438 L 526.765 448.438 L 519.468 475.66999999999996 C 519.347 476.121 519.562 476.58199999999994 519.982 476.78299999999996 C 520.404 476.984 520.896 476.85699999999997 521.17 476.47999999999996 L 546.332 441.73799999999994 C 546.549 441.43899999999996 546.576 441.06999999999994 546.408 440.74199999999996 C 546.242 440.412 545.926 440.21899999999994 545.556 440.21899999999994 L 533.8570000000001 440.21899999999994 L 541.1540000000001 412.98699999999997 C 541.2750000000001 412.53599999999994 541.0620000000001 412.075 540.6400000000001 411.87399999999997 C 540.2200000000001 411.67299999999994 539.7260000000001 411.79999999999995 539.4520000000001 412.17699999999996 L 514.2900000000001 446.919 C 514.075 447.21799999999996 514.046 447.587 514.214 447.91499999999996 C 514.383 448.244 514.699 448.438 515.068 448.438 L 515.068 448.438 z M 375.636 448.438 L 363.93800000000005 448.438 L 371.23500000000007 475.66999999999996 C 371.35600000000005 476.121 371.1430000000001 476.58199999999994 370.72100000000006 476.78299999999996 C 370.30000000000007 476.984 369.8070000000001 476.85699999999997 369.53400000000005 476.47999999999996 L 344.37200000000007 441.73799999999994 C 344.15600000000006 441.43899999999996 344.12700000000007 441.06999999999994 344.2950000000001 440.74199999999996 C 344.4630000000001 440.412 344.77900000000005 440.21899999999994 345.1480000000001 440.21899999999994 L 356.84600000000006 440.21899999999994 L 349.54900000000004 412.98699999999997 C 349.42800000000005 412.53599999999994 349.641 412.075 350.06300000000005 411.87399999999997 C 350.48400000000004 411.67299999999994 350.97700000000003 411.79999999999995 351.25000000000006 412.17699999999996 L 376.41200000000003 446.919 C 376.62800000000004 447.21799999999996 376.65700000000004 447.587 376.48900000000003 447.91499999999996 C 376.321 448.244 376.005 448.438 375.636 448.438 L 375.636 448.438 z M 491.918 453.047 L 494.094 499.654 C 491.367 500.988 488.586 502.215 485.754 503.326 C 472.553 508.51000000000005 458.53900000000004 511.119 444.362 511.119 C 430.75800000000004 511.119 417.297 508.723 404.557 503.94100000000003 C 404.245 503.824 403.934 503.70500000000004 403.623 503.586 L 405.52799999999996 464.42600000000004 C 414.143 467.326 425.38899999999995 467.922 435.43699999999995 465.93000000000006 C 405.4789999999999 462.0040000000001 379.025 443.4440000000001 379.94499999999994 417.00200000000007 C 380.27599999999995 407.4920000000001 380.64899999999994 397.98600000000005 380.9869999999999 388.47800000000007 C 381.2799999999999 380.2080000000001 387.7699999999999 373.5780000000001 396.0309999999999 373.1050000000001 C 411.4419999999999 372.2250000000001 426.7599999999999 371.0920000000001 441.7689999999999 369.4220000000001 C 443.8769999999999 382.8800000000001 438.1099999999999 398.8800000000001 414.4149999999999 398.8800000000001 L 415.40199999999993 414.3470000000001 C 446.21199999999993 412.0700000000001 468.81299999999993 421.0810000000001 488.0299999999999 437.3680000000001 C 484.5359999999999 427.0870000000001 475.5399999999999 416.2100000000001 466.3989999999999 410.2570000000001 C 469.3129999999999 408.87400000000014 474.0219999999999 407.39800000000014 479.14499999999987 406.1830000000001 C 481.01799999999986 407.9330000000001 483.34799999999984 409.29000000000013 485.97499999999985 410.1150000000001 C 494.0339999999999 412.64800000000014 502.74999999999983 409.52100000000013 505.92199999999985 401.3220000000001 L 506.8149999999998 399.0090000000001 L 508.8439999999998 399.12400000000014 C 511.8009999999998 399.29200000000014 514.7209999999998 399.51300000000015 517.6079999999998 399.79400000000015 C 516.508 425.107 506.309 442.393 491.918 453.047 L 491.918 453.047 z M 515.752 362.64 L 501.45699999999994 399.594 C 496.68899999999996 411.916 476.0919999999999 405.451 479.4939999999999 392.683 L 489.7969999999999 354.019 C 493.199 341.252 520.518 350.318 515.752 362.64 L 515.752 362.64 z M 486.793 350.619 L 474.568 392.49 C 470.49199999999996 406.451 447.294 401.285 449.832 386.963 L 457.518 343.59000000000003 C 460.055 329.268 490.869 336.657 486.793 350.619 L 486.793 350.619 z M 452.129 339.793 L 446.93800000000005 373.271 C 446.88700000000006 371.731 446.73900000000003 370.195 446.50200000000007 368.682 C 446.1050000000001 366.149 443.78800000000007 364.38 441.24100000000004 364.663 C 434.326 365.433 427.398 366.082 420.463 366.644 L 422.19 336.625 C 423.024 322.103 454.357 325.42 452.129 339.793 L 452.129 339.793 z M 415.875 336.549 L 414.186 367.12899999999996 C 408.04699999999997 367.58199999999994 401.90299999999996 367.972 395.75899999999996 368.323 C 392.66499999999996 368.5 389.76099999999997 369.344 387.18499999999995 370.71299999999997 L 385.768 336.34399999999994 C 385.169 321.811 416.678 322.025 415.875 336.549 L 415.875 336.549 z M 289.605 335.513 C 286.75 331.635 284.40000000000003 327.489 282.533 323.407 C 278.949 315.57399999999996 277.125 307.931 276.88300000000004 302.84499999999997 C 276.84100000000007 301.967 277.52000000000004 301.22099999999995 278.398 301.17999999999995 C 279.276 301.138 280.02200000000005 301.81699999999995 280.06300000000005 302.69499999999994 C 280.28900000000004 307.4429999999999 282.02000000000004 314.6379999999999 285.42600000000004 322.08399999999995 C 287.40700000000004 326.41299999999995 289.95200000000006 330.81299999999993 293.093 334.84599999999995 C 291.793 335.284 290.577 335.513 289.605 335.513 L 289.605 335.513 z M 293.614 334.661 C 291.00899999999996 330.429 288.98299999999995 325.936 287.46999999999997 321.552 C 284.681 313.47200000000004 283.63 305.72400000000005 283.89899999999994 300.648 C 283.94399999999996 299.77000000000004 284.69199999999995 299.09400000000005 285.56999999999994 299.139 C 286.4479999999999 299.184 287.1239999999999 299.932 287.07899999999995 300.81 C 286.82699999999994 305.554 287.82899999999995 312.848 290.47499999999997 320.517 C 291.95099999999996 324.792 293.936 329.173 296.49999999999994 333.279 C 296.14599999999996 333.489 295.77299999999997 333.694 295.3809999999999 333.89 C 294.79 334.186 294.196 334.443 293.614 334.661 L 293.614 334.661 z M 297.314 332.761 C 294.877 327.952 293.15000000000003 322.88500000000005 292.004 318.011 C 290.047 309.685 289.783 301.863 290.564 296.83200000000005 C 290.69800000000004 295.96400000000006 291.511 295.37000000000006 292.379 295.5040000000001 C 293.247 295.6380000000001 293.841 296.4510000000001 293.707 297.3190000000001 C 292.981 301.99800000000005 293.246 309.35800000000006 295.109 317.28800000000007 C 296.13399999999996 321.6480000000001 297.643 326.16300000000007 299.73699999999997 330.47600000000006 C 299.272 331.2 298.43 332.001 297.314 332.761 L 297.314 332.761 z M 444.362 270.123 C 454.557 270.123 464.47700000000003 271.32 473.985 273.581 C 483.76800000000003 275.906 493.12600000000003 279.36600000000004 501.911 283.81100000000004 C 503.089 284.40500000000003 503.561 285.84200000000004 502.968 287.02000000000004 C 502.37500000000006 288.19800000000004 500.937 288.67100000000005 499.759 288.07700000000006 C 491.325 283.8090000000001 482.32 280.48300000000006 472.882 278.24000000000007 C 463.734 276.06500000000005 454.185 274.91300000000007 444.363 274.91300000000007 C 433.208 274.91300000000007 422.405 276.39700000000005 412.142 279.1790000000001 C 401.533 282.0540000000001 391.502 286.3090000000001 382.257 291.7360000000001 C 381.12 292.4030000000001 379.658 292.02100000000013 378.992 290.8850000000001 C 378.326 289.7480000000001 378.707 288.2860000000001 379.843 287.6200000000001 C 389.475 281.9670000000001 399.901 277.5410000000001 410.908 274.5580000000001 C 421.574 271.666 432.791 270.123 444.362 270.123 L 444.362 270.123 z M 527.873 307.654 C 526.908 306.756 526.8530000000001 305.243 527.7520000000001 304.277 C 528.6500000000001 303.311 530.1640000000001 303.256 531.129 304.155 C 541.09 313.388 549.576 324.191 556.193 336.171 C 562.654 347.867 567.336 360.69599999999997 569.867 374.294 C 570.105 375.591 569.246 376.835 567.949 377.072 C 566.6519999999999 377.31 565.4079999999999 376.451 565.1719999999999 375.154 C 562.7379999999999 362.092 558.2309999999999 349.746 552.002 338.472 C 545.633 326.942 537.463 316.543 527.873 307.654 L 527.873 307.654 z M 565.82 416.648 C 566.0150000000001 415.341 567.234 414.44100000000003 568.541 414.636 C 569.8480000000001 414.833 570.75 416.052 570.553 417.35900000000004 C 569.295 425.54300000000006 567.246 433.492 564.49 441.129 C 561.679 448.91400000000004 558.14 456.34000000000003 553.957 463.322 C 553.281 464.453 551.814 464.822 550.684 464.146 C 549.553 463.468 549.184 462.00300000000004 549.862 460.87100000000004 C 553.8969999999999 454.13500000000005 557.305 446.99 560.001 439.51900000000006 C 562.637 432.217 564.602 424.568 565.82 416.648 L 565.82 416.648 z M 527.969 487.873 C 528.9340000000001 486.97499999999997 530.446 487.029 531.346 487.996 C 532.244 488.96099999999996 532.19 490.47299999999996 531.223 491.373 C 519.616 502.154 505.996 510.805 490.99399999999997 516.6949999999999 C 476.54299999999995 522.371 460.81199999999995 525.4879999999999 444.36199999999997 525.4879999999999 C 428.599 525.4879999999999 413.48999999999995 522.621 399.527 517.381 C 385.03999999999996 511.945 371.805 503.953 360.373 493.95899999999995 C 359.381 493.0919999999999 359.281 491.58399999999995 360.14799999999997 490.5919999999999 C 361.01499999999993 489.5999999999999 362.52299999999997 489.49999999999994 363.51599999999996 490.3669999999999 C 374.52299999999997 499.9899999999999 387.258 507.6799999999999 401.19199999999995 512.9099999999999 C 414.60799999999995 517.9429999999999 429.15399999999994 520.6989999999998 444.36199999999997 520.6989999999998 C 460.21299999999997 520.6989999999998 475.356 517.7009999999998 489.25399999999996 512.2419999999998 C 503.693 506.574 516.797 498.25 527.969 487.873 L 527.969 487.873 z M 344.183 469.016 C 344.948 470.09000000000003 344.69599999999997 471.58000000000004 343.622 472.346 C 342.547 473.11 341.05600000000004 472.858 340.291 471.783 C 332.734 461.17400000000004 326.757 449.34700000000004 322.707 436.65000000000003 C 318.792 424.38000000000005 316.68 411.32800000000003 316.68 397.80400000000003 C 316.68 396.29400000000004 316.714 394.65400000000005 316.781 392.884 C 316.847 391.148 316.938 389.514 317.055 387.981 C 317.153 386.664 318.301 385.675 319.618 385.77299999999997 C 320.935 385.871 321.924 387.01899999999995 321.826 388.33599999999996 C 321.70000000000005 389.99199999999996 321.608 391.56499999999994 321.552 393.05099999999993 C 321.497 394.48999999999995 321.469 396.07499999999993 321.469 397.80299999999994 C 321.469 410.86699999999996 323.497 423.43399999999997 327.254 435.20699999999994 C 331.146 447.408 336.899 458.789 344.183 469.016 L 344.183 469.016 z M 331.583 348.897 C 331.062 350.106 329.658 350.663 328.449 350.141 C 327.241 349.62 326.683 348.216 327.205 347.007 C 330.00399999999996 340.56 333.313 334.399 337.08 328.575 C 340.892 322.681 345.168 317.128 349.853 311.972 C 350.742 310.995 352.254 310.92499999999995 353.23 311.813 C 354.206 312.70099999999996 354.27700000000004 314.21299999999997 353.389 315.19 C 348.861 320.173 344.742 325.519 341.083 331.176 C 337.45 336.796 334.266 342.72 331.583 348.897 L 331.583 348.897 z M 572.371 345.756 C 571.627 343.91999999999996 572.514 341.827 574.35 341.08299999999997 C 576.188 340.33899999999994 578.28 341.22499999999997 579.024 343.06199999999995 C 581.542 349.24699999999996 583.647 355.65399999999994 585.307 362.246 C 586.932 368.695 588.125 375.332 588.854 382.12699999999995 C 589.063 384.09499999999997 587.6370000000001 385.86099999999993 585.668 386.06999999999994 C 583.699 386.27899999999994 581.934 384.85299999999995 581.725 382.88499999999993 C 581.0360000000001 376.45899999999995 579.899 370.14899999999994 578.3480000000001 363.9869999999999 C 576.773 357.737 574.771 351.649 572.371 345.756 L 572.371 345.756 z M 579.703 425.758 C 580.0989999999999 423.82 581.99 422.57 583.928 422.965 C 585.866 423.35999999999996 587.116 425.25 586.721 427.188 C 580.756 456.231 566.135 482.11 545.672 502.006 C 525.248 521.865 499.01000000000005 535.776 469.75800000000004 540.932 C 467.80500000000006 541.274 465.94500000000005 539.967 465.60600000000005 538.014 C 465.26400000000007 536.061 466.571 534.201 468.52400000000006 533.86 C 496.3330000000001 528.958 521.272 515.741 540.6780000000001 496.87 C 560.135 477.949 574.037 453.352 579.703 425.758 L 579.703 425.758 z M 416.498 533.168 C 418.436 533.563 419.686 535.453 419.291 537.391 C 418.896 539.329 417.004 540.579 415.067 540.184 C 392.368 535.538 371.603 525.6039999999999 354.11400000000003 511.73299999999995 C 336.374 497.66099999999994 321.99600000000004 479.52799999999996 312.38200000000006 458.7389999999999 C 311.55300000000005 456.93999999999994 312.3380000000001 454.8109999999999 314.1360000000001 453.98099999999994 C 315.9330000000001 453.15299999999996 318.0630000000001 453.93799999999993 318.89200000000005 455.73499999999996 C 328.03100000000006 475.49699999999996 341.70300000000003 492.73499999999996 358.576 506.11999999999995 C 375.208 519.313 394.941 528.754 416.498 533.168 L 416.498 533.168 z M 308.75 424.355 C 309.122 426.3 307.847 428.17900000000003 305.902 428.55 C 303.957 428.923 302.078 427.648 301.70599999999996 425.702 C 300.83 421.196 300.15599999999995 416.569 299.70099999999996 411.831 C 299.24899999999997 407.134 299.01699999999994 402.452 299.01699999999994 397.80400000000003 C 299.01699999999994 394.29600000000005 299.1479999999999 390.77200000000005 299.40399999999994 387.24 C 299.66099999999994 383.701 300.04599999999994 380.192 300.55099999999993 376.717 C 300.8299999999999 374.757 302.64599999999996 373.393 304.6069999999999 373.67199999999997 C 306.5669999999999 373.95099999999996 307.9309999999999 375.767 307.65199999999993 377.727 C 307.1719999999999 381.025 306.8059999999999 384.366 306.55999999999995 387.745 C 306.3229999999999 391.022 306.20099999999996 394.376 306.20099999999996 397.80400000000003 C 306.20099999999996 402.394 306.414 406.84700000000004 306.82899999999995 411.158 C 307.254 415.576 307.899 419.98 308.75 424.355 L 308.75 424.355 z M 320.697 336.12 C 319.813 337.887 317.665 338.603 315.898 337.72 C 314.13100000000003 336.83700000000005 313.415 334.68800000000005 314.298 332.92100000000005 C 325.815 309.879 343.272 290.32400000000007 364.663 276.26700000000005 C 385.47200000000004 262.59200000000004 409.997 254.11600000000004 436.39300000000003 252.68600000000006 C 438.369 252.58500000000006 440.05300000000005 254.10600000000005 440.15400000000005 256.08200000000005 C 440.25500000000005 258.059 438.73400000000004 259.7420000000001 436.75800000000004 259.8430000000001 C 411.665 261.2010000000001 388.35900000000004 269.2540000000001 368.591 282.2440000000001 C 348.25 295.612 331.648 314.208 320.697 336.12 L 320.697 336.12 z" stroke-linecap="round" />
</g>
</g>
</g>
<g transform="matrix(1.9211538461538462 0 0 1.9211538461538462 641.0806490384615 705.6487498864516)" id="text-logo"  >
<g style=""  paint-order="stroke"   >
		<g transform="matrix(1 0 0 1 0 0)" id="text-logo-path-0"  >
<path style="stroke: none; stroke-width: 0; stroke-dasharray: none; stroke-linecap: butt; stroke-dashoffset: 0; stroke-linejoin: miter; stroke-miterlimit: 4; fill: rgb(216,248,233); fill-rule: nonzero; opacity: 1;"  paint-order="stroke"  transform=" translate(-239.5, 19.8)" d="M 37.5 -11.7 L 37.5 -16.15 L 25 -16.15 C 25 -11.75 24.15 -10 21.2 -10 L 19.1 -10 C 16.35 -10 15.2 -11.85 15.2 -16.4 L 15.2 -23.45 C 15.2 -28 16.15 -29.5 19.1 -29.5 L 21.2 -29.5 C 23.65 -29.5 25 -27.65 25 -23.2 L 37.5 -23.2 L 37.5 -29.4 C 37.5 -34.8 30.65 -39.55 25.55 -39.55 L 16.4 -39.55 C 6.6 -39.55 2.75 -34.95 2.75 -27.05 L 2.75 -12.4 C 2.75 -4.55 6.7 0 15.8 0 L 24.7 0 C 33 0 37.5 -4.25 37.5 -11.7 Z M 61.1 -14.75 L 64.45 -25.75 L 67.2 -14.75 Z M 43 0 L 56.55 0 L 58 -4.8 L 69.7 -4.8 L 70.9 -0.05 L 84.4 -0.05 L 70.5 -39.6 L 57.3 -39.6 Z M 90.4 -39.55 L 90.4 -0.05 L 120.1 -0.05 L 120.1 -10.05 L 102.9 -10.05 L 102.9 -39.55 Z M 127.35 -39.55 L 127.35 -0.05 L 157.05 -0.05 L 157.05 -10.05 L 139.85 -10.05 L 139.85 -39.55 Z M 165.4 -29.6 L 165.4 0 L 177.9 0 L 177.9 -29.6 L 188.95 -29.6 L 188.95 -39.6 L 154.3 -39.6 L 154.3 -29.6 Z M 195.25 -39.55 L 195.25 -0.05 L 225.4 -0.05 L 225.4 -10.1 L 207.8 -10.1 L 207.8 -14.8 L 222.6 -14.8 L 222.6 -24.7 L 207.65 -24.7 L 207.65 -29.5 L 225.4 -29.5 L 225.4 -39.55 Z M 267.45 -11.7 L 267.45 -16.15 L 254.95 -16.15 C 254.95 -11.75 254.1 -10 251.15 -10 L 249.05 -10 C 246.3 -10 245.15 -11.85 245.15 -16.4 L 245.15 -23.45 C 245.15 -28 246.1 -29.5 249.05 -29.5 L 251.15 -29.5 C 253.6 -29.5 254.95 -27.65 254.95 -23.2 L 267.45 -23.2 L 267.45 -29.4 C 267.45 -34.8 260.6 -39.55 255.5 -39.55 L 246.35 -39.55 C 236.55 -39.55 232.7 -34.95 232.7 -27.05 L 232.7 -12.4 C 232.7 -4.55 236.65 0 245.75 0 L 254.65 0 C 262.95 0 267.45 -4.25 267.45 -11.7 Z M 274.7 -39.55 L 274.7 -0.05 L 287.2 -0.05 L 287.2 -13.75 L 296.4 -13.75 L 296.4 -0.05 L 308.9 -0.05 L 308.9 -39.55 L 296.4 -39.55 L 296.4 -24.25 L 287.2 -24.25 L 287.2 -39.55 Z M 352.15 -11.7 L 352.15 -16.15 L 339.65 -16.15 C 339.65 -11.75 338.8 -10 335.85 -10 L 333.75 -10 C 331 -10 329.85 -11.85 329.85 -16.4 L 329.85 -23.45 C 329.85 -28 330.8 -29.5 333.75 -29.5 L 335.85 -29.5 C 338.3 -29.5 339.65 -27.65 339.65 -23.2 L 352.15 -23.2 L 352.15 -29.4 C 352.15 -34.8 345.3 -39.55 340.2 -39.55 L 331.05 -39.55 C 321.25 -39.55 317.4 -34.95 317.4 -27.05 L 317.4 -12.4 C 317.4 -4.55 321.35 0 330.45 0 L 339.35 0 C 347.65 0 352.15 -4.25 352.15 -11.7 Z M 375.75 -14.75 L 379.1 -25.75 L 381.85 -14.75 Z M 357.65 0 L 371.2 0 L 372.65 -4.8 L 384.35 -4.8 L 385.55 -0.05 L 399.05 -0.05 L 385.15 -39.6 L 371.95 -39.6 Z M 405.05 -0.05 L 417.55 -0.05 L 417.55 -11.1 L 420.1 -11.1 L 426.6 -0.05 L 439.55 -0.05 L 431.95 -12 C 435.1 -13.9 437.1 -18.3 437.1 -24.9 C 437.1 -34.85 432.6 -39.55 423.35 -39.55 L 405.05 -39.55 Z M 421.8 -20.1 L 417.55 -20.1 L 417.55 -29.55 L 421.8 -29.55 C 424.8 -29.55 426.15 -28.05 426.15 -24.7 C 426.15 -21.35 424.8 -20.1 421.8 -20.1 Z M 446.1 -39.55 L 446.1 -0.05 L 476.25 -0.05 L 476.25 -10.1 L 458.65 -10.1 L 458.65 -14.8 L 473.45 -14.8 L 473.45 -24.7 L 458.5 -24.7 L 458.5 -29.5 L 476.25 -29.5 L 476.25 -39.55 Z" stroke-linecap="round" />
</g>
</g>
</g>
</svg>